<mxfile host="app.diagrams.net" modified="2024-01-04T18:21:00.246Z" agent="Mozilla/5.0 (Macintosh; Intel Mac OS X 10_15_7) AppleWebKit/537.36 (KHTML, like Gecko) Chrome/120.0.0.0 Safari/537.36" version="22.1.16" etag="iwIHGv_2-3T9aF-aL2AI" type="github">
  <diagram name="Page-1" id="t_QikPuGpEzPrk-o2a8d">
    <mxGraphModel>
      <root>
        <mxCell id="0" />
        <mxCell id="1" parent="0" />
      </root>
    </mxGraphModel>
  </diagram>
</mxfile>
